<?xml version="1.0" encoding="UTF-8" standalone="no"?>
<svg width="1024px" height="600px" viewBox="0 0 1024 600" version="1.1" xmlns="http://www.w3.org/2000/svg" xmlns:xlink="http://www.w3.org/1999/xlink" xmlns:sketch="http://www.bohemiancoding.com/sketch/ns">
    <!-- Generator: Sketch 3.5.1 (25234) - http://www.bohemiancoding.com/sketch -->
    <title>FT2</title>
    <desc>Created with Sketch.</desc>
    <defs>
        <filter x="-50%" y="-50%" width="200%" height="200%" filterUnits="objectBoundingBox" id="filter-1">
            <feOffset dx="0" dy="2" in="SourceAlpha" result="shadowOffsetOuter1"></feOffset>
            <feGaussianBlur stdDeviation="2.5" in="shadowOffsetOuter1" result="shadowBlurOuter1"></feGaussianBlur>
            <feColorMatrix values="0 0 0 0 0   0 0 0 0 0   0 0 0 0 0  0 0 0 0.35 0" in="shadowBlurOuter1" type="matrix" result="shadowMatrixOuter1"></feColorMatrix>
            <feMerge>
                <feMergeNode in="shadowMatrixOuter1"></feMergeNode>
                <feMergeNode in="SourceGraphic"></feMergeNode>
            </feMerge>
        </filter>
        <filter x="-50%" y="-50%" width="200%" height="200%" filterUnits="objectBoundingBox" id="filter-2">
            <feOffset dx="0" dy="2" in="SourceAlpha" result="shadowOffsetOuter1"></feOffset>
            <feGaussianBlur stdDeviation="2.5" in="shadowOffsetOuter1" result="shadowBlurOuter1"></feGaussianBlur>
            <feColorMatrix values="0 0 0 0 0   0 0 0 0 0   0 0 0 0 0  0 0 0 0.35 0" in="shadowBlurOuter1" type="matrix" result="shadowMatrixOuter1"></feColorMatrix>
            <feMerge>
                <feMergeNode in="shadowMatrixOuter1"></feMergeNode>
                <feMergeNode in="SourceGraphic"></feMergeNode>
            </feMerge>
        </filter>
        <filter x="-50%" y="-50%" width="200%" height="200%" filterUnits="objectBoundingBox" id="filter-3">
            <feOffset dx="0" dy="2" in="SourceAlpha" result="shadowOffsetOuter1"></feOffset>
            <feGaussianBlur stdDeviation="2.5" in="shadowOffsetOuter1" result="shadowBlurOuter1"></feGaussianBlur>
            <feColorMatrix values="0 0 0 0 0   0 0 0 0 0   0 0 0 0 0  0 0 0 0.35 0" in="shadowBlurOuter1" type="matrix" result="shadowMatrixOuter1"></feColorMatrix>
            <feMerge>
                <feMergeNode in="shadowMatrixOuter1"></feMergeNode>
                <feMergeNode in="SourceGraphic"></feMergeNode>
            </feMerge>
        </filter>
    </defs>
    <g id="Page-1" stroke="none" stroke-width="1" fill="none" fill-rule="evenodd" sketch:type="MSPage">
        <g id="FT2" sketch:type="MSArtboardGroup" stroke="#6C71C4" fill="#268BD2">
            <g id="Rabbit-3" sketch:type="MSLayerGroup" transform="translate(322.000000, 50.000000)" filter="url(#filter-1)">
                <path d="M29.3345141,122.538301 C17.5413924,132.071038 10,146.654826 10,163 C10,191.718807 33.281193,215 62,215 C90.718807,215 114,191.718807 114,163 C114,144.847561 104.698727,128.867552 90.602145,119.565934 C97.7309778,108.566406 104.976127,91.4052448 110.304876,71.5180799 C120.02492,35.2423849 119.687837,3.63345628 109.551981,0.917561857 C99.4161249,-1.79833256 83.3197383,25.4072612 73.5996951,61.6829562 C68.5300962,80.6029568 66.1962995,98.2534745 66.5616504,111.197326 C65.0584996,111.066687 63.5370376,111 62,111 C58.3367841,111 54.7620391,111.378789 51.3127965,112.099336 C51.8161298,99.0798647 49.4932537,81.0462438 44.3048765,61.6829562 C34.5848333,25.4072612 18.4884467,-1.79833256 8.3525907,0.917561857 C-1.78326526,3.63345628 -2.12034812,35.2423849 7.59969507,71.5180799 C13.4359947,93.2994467 21.5711435,111.81079 29.3345141,122.538301 L29.3345141,122.538301 Z" id="Rabbit" sketch:type="MSShapeGroup"></path>
            </g>
            <g id="Rabbit-2" sketch:type="MSLayerGroup" transform="translate(453.000000, 138.000000)" filter="url(#filter-2)">
                <path d="M29.3345141,122.538301 C17.5413924,132.071038 10,146.654826 10,163 C10,191.718807 33.281193,215 62,215 C90.718807,215 114,191.718807 114,163 C114,144.847561 104.698727,128.867552 90.602145,119.565934 C97.7309778,108.566406 104.976127,91.4052448 110.304876,71.5180799 C120.02492,35.2423849 119.687837,3.63345628 109.551981,0.917561857 C99.4161249,-1.79833256 83.3197383,25.4072612 73.5996951,61.6829562 C68.5300962,80.6029568 66.1962995,98.2534745 66.5616504,111.197326 C65.0584996,111.066687 63.5370376,111 62,111 C58.3367841,111 54.7620391,111.378789 51.3127965,112.099336 C51.8161298,99.0798647 49.4932537,81.0462438 44.3048765,61.6829562 C34.5848333,25.4072612 18.4884467,-1.79833256 8.3525907,0.917561857 C-1.78326526,3.63345628 -2.12034812,35.2423849 7.59969507,71.5180799 C13.4359947,93.2994467 21.5711435,111.81079 29.3345141,122.538301 L29.3345141,122.538301 Z" id="Rabbit" sketch:type="MSShapeGroup"></path>
            </g>
            <g id="Rabbit-2-Copy" sketch:type="MSLayerGroup" transform="translate(584.000000, 50.000000)" filter="url(#filter-3)">
                <path d="M29.3345141,122.538301 C17.5413924,132.071038 10,146.654826 10,163 C10,191.718807 33.281193,215 62,215 C90.718807,215 114,191.718807 114,163 C114,144.847561 104.698727,128.867552 90.602145,119.565934 C97.7309778,108.566406 104.976127,91.4052448 110.304876,71.5180799 C120.02492,35.2423849 119.687837,3.63345628 109.551981,0.917561857 C99.4161249,-1.79833256 83.3197383,25.4072612 73.5996951,61.6829562 C68.5300962,80.6029568 66.1962995,98.2534745 66.5616504,111.197326 C65.0584996,111.066687 63.5370376,111 62,111 C58.3367841,111 54.7620391,111.378789 51.3127965,112.099336 C51.8161298,99.0798647 49.4932537,81.0462438 44.3048765,61.6829562 C34.5848333,25.4072612 18.4884467,-1.79833256 8.3525907,0.917561857 C-1.78326526,3.63345628 -2.12034812,35.2423849 7.59969507,71.5180799 C13.4359947,93.2994467 21.5711435,111.81079 29.3345141,122.538301 L29.3345141,122.538301 Z" id="Rabbit" sketch:type="MSShapeGroup"></path>
            </g>
        </g>
    </g>
</svg>