<?xml version="1.0" encoding="UTF-8" standalone="no"?>
<svg width="1024px" height="600px" viewBox="0 0 1024 600" version="1.1" xmlns="http://www.w3.org/2000/svg" xmlns:xlink="http://www.w3.org/1999/xlink" xmlns:sketch="http://www.bohemiancoding.com/sketch/ns">
    <!-- Generator: Sketch 3.5.1 (25234) - http://www.bohemiancoding.com/sketch -->
    <title>SH2</title>
    <desc>Created with Sketch.</desc>
    <defs>
        <filter x="-50%" y="-50%" width="200%" height="200%" filterUnits="objectBoundingBox" id="filter-1">
            <feOffset dx="0" dy="2" in="SourceAlpha" result="shadowOffsetOuter1"></feOffset>
            <feGaussianBlur stdDeviation="2.5" in="shadowOffsetOuter1" result="shadowBlurOuter1"></feGaussianBlur>
            <feColorMatrix values="0 0 0 0 0   0 0 0 0 0   0 0 0 0 0  0 0 0 0.35 0" in="shadowBlurOuter1" type="matrix" result="shadowMatrixOuter1"></feColorMatrix>
            <feMerge>
                <feMergeNode in="shadowMatrixOuter1"></feMergeNode>
                <feMergeNode in="SourceGraphic"></feMergeNode>
            </feMerge>
        </filter>
        <filter x="-50%" y="-50%" width="200%" height="200%" filterUnits="objectBoundingBox" id="filter-2">
            <feOffset dx="0" dy="4" in="SourceAlpha" result="shadowOffsetOuter1"></feOffset>
            <feGaussianBlur stdDeviation="3.5" in="shadowOffsetOuter1" result="shadowBlurOuter1"></feGaussianBlur>
            <feColorMatrix values="0 0 0 0 0   0 0 0 0 0   0 0 0 0 0  0 0 0 0.35 0" in="shadowBlurOuter1" type="matrix" result="shadowMatrixOuter1"></feColorMatrix>
            <feMerge>
                <feMergeNode in="shadowMatrixOuter1"></feMergeNode>
                <feMergeNode in="SourceGraphic"></feMergeNode>
            </feMerge>
        </filter>
        <filter x="-50%" y="-50%" width="200%" height="200%" filterUnits="objectBoundingBox" id="filter-3">
            <feOffset dx="0" dy="6" in="SourceAlpha" result="shadowOffsetOuter1"></feOffset>
            <feGaussianBlur stdDeviation="4.5" in="shadowOffsetOuter1" result="shadowBlurOuter1"></feGaussianBlur>
            <feColorMatrix values="0 0 0 0 0   0 0 0 0 0   0 0 0 0 0  0 0 0 0.35 0" in="shadowBlurOuter1" type="matrix" result="shadowMatrixOuter1"></feColorMatrix>
            <feMerge>
                <feMergeNode in="shadowMatrixOuter1"></feMergeNode>
                <feMergeNode in="SourceGraphic"></feMergeNode>
            </feMerge>
        </filter>
        <filter x="-50%" y="-50%" width="200%" height="200%" filterUnits="objectBoundingBox" id="filter-4">
            <feOffset dx="0" dy="2" in="SourceAlpha" result="shadowOffsetOuter1"></feOffset>
            <feGaussianBlur stdDeviation="2" in="shadowOffsetOuter1" result="shadowBlurOuter1"></feGaussianBlur>
            <feColorMatrix values="0 0 0 0 0   0 0 0 0 0   0 0 0 0 0  0 0 0 0.145020947 0" in="shadowBlurOuter1" type="matrix" result="shadowMatrixOuter1"></feColorMatrix>
            <feMerge>
                <feMergeNode in="shadowMatrixOuter1"></feMergeNode>
                <feMergeNode in="SourceGraphic"></feMergeNode>
            </feMerge>
        </filter>
        <filter x="-50%" y="-50%" width="200%" height="200%" filterUnits="objectBoundingBox" id="filter-5">
            <feOffset dx="0" dy="2" in="SourceAlpha" result="shadowOffsetOuter1"></feOffset>
            <feGaussianBlur stdDeviation="2" in="shadowOffsetOuter1" result="shadowBlurOuter1"></feGaussianBlur>
            <feColorMatrix values="0 0 0 0 0   0 0 0 0 0   0 0 0 0 0  0 0 0 0.161724411 0" in="shadowBlurOuter1" type="matrix" result="shadowMatrixOuter1"></feColorMatrix>
            <feMerge>
                <feMergeNode in="shadowMatrixOuter1"></feMergeNode>
                <feMergeNode in="SourceGraphic"></feMergeNode>
            </feMerge>
        </filter>
        <filter x="-50%" y="-50%" width="200%" height="200%" filterUnits="objectBoundingBox" id="filter-6">
            <feOffset dx="0" dy="2" in="SourceAlpha" result="shadowOffsetOuter1"></feOffset>
            <feGaussianBlur stdDeviation="2" in="shadowOffsetOuter1" result="shadowBlurOuter1"></feGaussianBlur>
            <feColorMatrix values="0 0 0 0 0   0 0 0 0 0   0 0 0 0 0  0 0 0 0.161724411 0" in="shadowBlurOuter1" type="matrix" result="shadowMatrixOuter1"></feColorMatrix>
            <feMerge>
                <feMergeNode in="shadowMatrixOuter1"></feMergeNode>
                <feMergeNode in="SourceGraphic"></feMergeNode>
            </feMerge>
        </filter>
        <filter x="-50%" y="-50%" width="200%" height="200%" filterUnits="objectBoundingBox" id="filter-7">
            <feOffset dx="0" dy="2" in="SourceAlpha" result="shadowOffsetOuter1"></feOffset>
            <feGaussianBlur stdDeviation="2" in="shadowOffsetOuter1" result="shadowBlurOuter1"></feGaussianBlur>
            <feColorMatrix values="0 0 0 0 0   0 0 0 0 0   0 0 0 0 0  0 0 0 0.161724411 0" in="shadowBlurOuter1" type="matrix" result="shadowMatrixOuter1"></feColorMatrix>
            <feMerge>
                <feMergeNode in="shadowMatrixOuter1"></feMergeNode>
                <feMergeNode in="SourceGraphic"></feMergeNode>
            </feMerge>
        </filter>
    </defs>
    <g id="Scale-Horizontally" stroke="none" stroke-width="1" fill="none" fill-rule="evenodd" sketch:type="MSPage">
        <g id="SH2" sketch:type="MSArtboardGroup">
            <g id="RabbitCluster" sketch:type="MSLayerGroup" transform="translate(463.000000, 216.000000)" stroke="#6C71C4">
                <path d="M33.3850013,84.9218921 C25.1897812,91.5283011 19.9491525,101.635205 19.9491525,112.962791 C19.9491525,132.865592 36.1276087,149 56.0847458,149 C76.0418828,149 92.220339,132.865592 92.220339,112.962791 C92.220339,100.382729 85.7567425,89.3082102 75.9608126,82.8619732 C80.9147473,75.2390443 85.9495118,63.3459603 89.6525413,49.5636926 C96.4071476,24.4237923 96.1729035,2.5180697 89.1293426,0.635891706 C82.0857817,-1.24628629 70.9001571,17.6078229 64.1455508,42.7477231 C60.6226092,55.8597235 59.0008183,68.0919428 59.2547062,77.0623326 C58.2101438,76.9717971 57.1528566,76.9255814 56.0847458,76.9255814 C53.5391212,76.9255814 51.0549763,77.1880911 48.658045,77.6874467 C49.007819,68.6646504 47.393617,56.1669317 43.7881345,42.7477231 C37.0335282,17.6078229 25.8479036,-1.24628629 18.8043427,0.635891706 C11.7607818,2.5180697 11.5265377,24.4237923 18.281144,49.5636926 C22.3368777,64.6586863 27.9901167,77.4874776 33.3850013,84.9218921 L33.3850013,84.9218921 Z" id="Rabbit" fill="#1F6CA3" filter="url(#filter-1)" sketch:type="MSShapeGroup"></path>
                <path d="M26.3850013,91.9218921 C18.1897812,98.5283011 12.9491525,108.635205 12.9491525,119.962791 C12.9491525,139.865592 29.1276087,156 49.0847458,156 C69.0418828,156 85.220339,139.865592 85.220339,119.962791 C85.220339,107.382729 78.7567425,96.3082102 68.9608126,89.8619732 C73.9147473,82.2390443 78.9495118,70.3459603 82.6525413,56.5636926 C89.4071476,31.4237923 89.1729035,9.5180697 82.1293426,7.63589171 C75.0857817,5.75371371 63.9001571,24.6078229 57.1455508,49.7477231 C53.6226092,62.8597235 52.0008183,75.0919428 52.2547062,84.0623326 C51.2101438,83.9717971 50.1528566,83.9255814 49.0847458,83.9255814 C46.5391212,83.9255814 44.0549763,84.1880911 41.658045,84.6874467 C42.007819,75.6646504 40.393617,63.1669317 36.7881345,49.7477231 C30.0335282,24.6078229 18.8479036,5.75371371 11.8043427,7.63589171 C4.76078177,9.5180697 4.52653775,31.4237923 11.281144,56.5636926 C15.3368777,71.6586863 20.9901167,84.4874776 26.3850013,91.9218921 L26.3850013,91.9218921 Z" id="Rabbit" fill="#227CBB" filter="url(#filter-2)" sketch:type="MSShapeGroup"></path>
                <path d="M20.3850013,102.921892 C12.1897812,109.528301 6.94915254,119.635205 6.94915254,130.962791 C6.94915254,150.865592 23.1276087,167 43.0847458,167 C63.0418828,167 79.220339,150.865592 79.220339,130.962791 C79.220339,118.382729 72.7567425,107.30821 62.9608126,100.861973 C67.9147473,93.2390443 72.9495118,81.3459603 76.6525413,67.5636926 C83.4071476,42.4237923 83.1729035,20.5180697 76.1293426,18.6358917 C69.0857817,16.7537137 57.9001571,35.6078229 51.1455508,60.7477231 C47.6226092,73.8597235 46.0008183,86.0919428 46.2547062,95.0623326 C45.2101438,94.9717971 44.1528566,94.9255814 43.0847458,94.9255814 C40.5391212,94.9255814 38.0549763,95.1880911 35.658045,95.6874467 C36.007819,86.6646504 34.393617,74.1669317 30.7881345,60.7477231 C24.0335282,35.6078229 12.8479036,16.7537137 5.80434269,18.6358917 C-1.23921823,20.5180697 -1.47346225,42.4237923 5.28114403,67.5636926 C9.33687768,82.6586863 14.9901167,95.4874776 20.3850013,102.921892 L20.3850013,102.921892 Z" id="Rabbit" fill="#268BD2" filter="url(#filter-3)" sketch:type="MSShapeGroup"></path>
            </g>
            <g id="Workers" sketch:type="MSLayerGroup" transform="translate(576.000000, 58.000000)">
                <g id="Group-5" transform="translate(0.000000, 204.000000)" sketch:type="MSShapeGroup">
                    <g id="Worker" transform="translate(273.000000, 0.000000)" filter="url(#filter-4)" fill="#859900">
                        <path d="M38,76 C58.9868205,76 76,58.9868205 76,38 C76,17.0131795 58.9868205,0 38,0 C17.0131795,0 0,17.0131795 0,38 C0,58.9868205 17.0131795,76 38,76 Z M21.9126994,20.4078369 L26.9630534,42.266805 L28.0508219,48.3531291 L29.1644897,42.3963013 L33.4637655,20.4078369 L41.8810221,20.4078369 L46.4133911,42.266805 L47.5788574,48.3531291 L48.7443237,42.4998983 L53.8464762,20.4078369 L61.9529419,20.4078369 L51.2047526,58.5833333 L43.5903727,58.5833333 L38.980306,36.2581787 L37.6335449,28.8768921 L36.2867839,36.2581787 L31.6767171,58.5833333 L24.2695312,58.5833333 L13.4436442,20.4078369 L21.9126994,20.4078369 Z"></path>
                    </g>
                    <path d="M236,51 L236,31 L263,41 L236,51 Z" id="Triangle-1-Copy-5" fill="#93A1A1"></path>
                    <path d="M0.5,40.5 L250.787842,40.5" id="Line-Copy" stroke="#93A1A1" stroke-width="3" stroke-linecap="square"></path>
                </g>
            </g>
            <g id="Producers" sketch:type="MSLayerGroup" transform="translate(99.000000, 160.000000)">
                <g id="Group-2" transform="translate(0.000000, 103.000000)" sketch:type="MSShapeGroup">
                    <g id="--copy" filter="url(#filter-5)" fill="#C9337C">
                        <path d="M36.5,73 C56.6583934,73 73,56.6583934 73,36.5 C73,16.3416066 56.6583934,0 36.5,0 C16.3416066,0 0,16.3416066 0,36.5 C0,56.6583934 16.3416066,73 36.5,73 Z M43.693618,25.8596831 C42.5469051,24.9309404 40.9405834,24.466576 38.8746047,24.466576 L30.7149774,24.466576 L30.7149774,36.8055246 L38.8746047,36.8055246 C40.9405834,36.8055246 42.5469051,36.3032529 43.693618,35.2986944 C44.840331,34.294136 45.4136789,32.7020295 45.4136789,30.5223272 C45.4136789,28.342625 44.840331,26.7884258 43.693618,25.8596831 Z M50.3321998,40.9564151 C47.8302807,43.0034398 44.2575179,44.0269368 39.6138044,44.0269368 L30.7149774,44.0269368 L30.7149774,59.0952381 L22.0151658,59.0952381 L22.0151658,17.1883022 L40.2677118,17.1883022 C44.4754849,17.1883022 47.8302807,18.2686601 50.3321998,20.4294085 C52.834119,22.5901568 54.0850598,25.9354758 54.0850598,30.4654657 C54.0850598,35.4124422 52.834119,38.9093903 50.3321998,40.9564151 Z" id="Producer"></path>
                    </g>
                    <path d="M89.5,39.5 L339.787842,39.5" id="Line" stroke="#93A1A1" stroke-width="3" stroke-linecap="square"></path>
                    <polygon id="Triangle-1-Copy-2" fill="#93A1A1" transform="translate(337.672468, 39.234084) rotate(-271.000000) translate(-337.672468, -39.234084) " points="337.672468 25.7340844 347.672468 52.7340844 327.672468 52.7340844 "></polygon>
                </g>
                <g id="Group" transform="translate(0.000000, 147.000000)" sketch:type="MSShapeGroup">
                    <g id="--copy-2" transform="translate(0.000000, 60.000000)" filter="url(#filter-6)" fill="#C9337C">
                        <path d="M36.5,73 C56.6583934,73 73,56.6583934 73,36.5 C73,16.3416066 56.6583934,0 36.5,0 C16.3416066,0 0,16.3416066 0,36.5 C0,56.6583934 16.3416066,73 36.5,73 Z M43.693618,25.8596831 C42.5469051,24.9309404 40.9405834,24.466576 38.8746047,24.466576 L30.7149774,24.466576 L30.7149774,36.8055246 L38.8746047,36.8055246 C40.9405834,36.8055246 42.5469051,36.3032529 43.693618,35.2986944 C44.840331,34.294136 45.4136789,32.7020295 45.4136789,30.5223272 C45.4136789,28.342625 44.840331,26.7884258 43.693618,25.8596831 Z M50.3321998,40.9564151 C47.8302807,43.0034398 44.2575179,44.0269368 39.6138044,44.0269368 L30.7149774,44.0269368 L30.7149774,59.0952381 L22.0151658,59.0952381 L22.0151658,17.1883022 L40.2677118,17.1883022 C44.4754849,17.1883022 47.8302807,18.2686601 50.3321998,20.4294085 C52.834119,22.5901568 54.0850598,25.9354758 54.0850598,30.4654657 C54.0850598,35.4124422 52.834119,38.9093903 50.3321998,40.9564151 Z" id="Producer"></path>
                    </g>
                    <polygon id="Triangle-1-Copy" fill="#93A1A1" transform="translate(339.518211, 13.968903) rotate(-285.000000) translate(-339.518211, -13.968903) " points="339.518211 0.468902853 349.518211 27.4689029 329.518211 27.4689029 "></polygon>
                    <path d="M93.5,83.5 L338.5,14.5" id="Line-Copy-7" stroke="#93A1A1" stroke-width="3" stroke-linecap="square"></path>
                </g>
                <g id="Group-3" sketch:type="MSShapeGroup">
                    <g id="-" filter="url(#filter-7)" fill="#C9337C">
                        <path d="M36.5,73 C56.6583934,73 73,56.6583934 73,36.5 C73,16.3416066 56.6583934,0 36.5,0 C16.3416066,0 0,16.3416066 0,36.5 C0,56.6583934 16.3416066,73 36.5,73 Z M43.693618,25.8596831 C42.5469051,24.9309404 40.9405834,24.466576 38.8746047,24.466576 L30.7149774,24.466576 L30.7149774,36.8055246 L38.8746047,36.8055246 C40.9405834,36.8055246 42.5469051,36.3032529 43.693618,35.2986944 C44.840331,34.294136 45.4136789,32.7020295 45.4136789,30.5223272 C45.4136789,28.342625 44.840331,26.7884258 43.693618,25.8596831 Z M50.3321998,40.9564151 C47.8302807,43.0034398 44.2575179,44.0269368 39.6138044,44.0269368 L30.7149774,44.0269368 L30.7149774,59.0952381 L22.0151658,59.0952381 L22.0151658,17.1883022 L40.2677118,17.1883022 C44.4754849,17.1883022 47.8302807,18.2686601 50.3321998,20.4294085 C52.834119,22.5901568 54.0850598,25.9354758 54.0850598,30.4654657 C54.0850598,35.4124422 52.834119,38.9093903 50.3321998,40.9564151 Z" id="Producer"></path>
                    </g>
                    <path d="M93.5,43.5 L338.5,124.5" id="Line-Copy-6" stroke="#93A1A1" stroke-width="3" stroke-linecap="square"></path>
                    <polygon id="Triangle-1" fill="#93A1A1" transform="translate(339.691343, 124.410254) rotate(-256.000000) translate(-339.691343, -124.410254) " points="339.691343 110.910254 349.691343 137.910254 329.691343 137.910254 "></polygon>
                </g>
            </g>
        </g>
    </g>
</svg>